<?xml version="1.0" encoding="UTF-8"?>
<!DOCTYPE svg PUBLIC "-//W3C//DTD SVG 1.1//EN" "http://www.w3.org/Graphics/SVG/1.1/DTD/svg11.dtd">
<svg xmlns="http://www.w3.org/2000/svg" version="1.1" width="1200px" height="1200px" style="shape-rendering:geometricPrecision; text-rendering:geometricPrecision; image-rendering:optimizeQuality; fill-rule:evenodd; clip-rule:evenodd" xmlns:xlink="http://www.w3.org/1999/xlink">
<g><path style="opacity:0.998" fill="#891103" d="M 572.5,174.5 C 718.679,169.197 838.512,222.197 932,333.5C 1010.29,435.012 1038.96,549.345 1018,676.5C 990.38,811.068 916.547,911.235 796.5,977C 693.769,1028.43 587.102,1038.43 476.5,1007C 350.76,966.05 260.927,885.217 207,764.5C 169.216,670.237 164.216,574.237 192,476.5C 230.096,358.778 304.263,271.945 414.5,216C 464.645,192.132 517.312,178.298 572.5,174.5 Z M 603.5,363.5 C 645.233,362.744 684.233,372.577 720.5,393C 729.569,398.733 738.069,405.233 746,412.5C 746.667,413.5 746.667,414.5 746,415.5C 738.412,429.008 731.079,442.674 724,456.5C 717.887,467.136 709.054,470.302 697.5,466C 685.5,459.333 673.5,452.667 661.5,446C 631.643,432.856 601.31,431.523 570.5,442C 544.636,454.211 533.136,474.711 536,503.5C 537.23,509.956 539.564,515.956 543,521.5C 555.927,536.055 571.761,546.222 590.5,552C 622.433,561.755 653.766,573.088 684.5,586C 736.877,611.224 760.377,653.057 755,711.5C 746.744,779.417 709.911,823.25 644.5,843C 577.963,857.856 516.297,846.523 459.5,809C 450.405,802.739 442.071,795.573 434.5,787.5C 443.333,773.167 452.167,758.833 461,744.5C 470.453,734.275 481.286,732.442 493.5,739C 510.662,752.131 529.329,762.798 549.5,771C 577.068,780.416 604.734,780.749 632.5,772C 660.011,759.952 673.678,738.785 673.5,708.5C 673.369,699.779 671.536,691.446 668,683.5C 658.501,669.664 646.001,659.498 630.5,653C 601.115,643.538 571.782,633.872 542.5,624C 472.672,597.206 444.172,546.706 457,472.5C 467.954,427.882 494.454,396.382 536.5,378C 558.042,368.86 580.375,364.027 603.5,363.5 Z"/></g>
</svg>
